<svg width="487" height="487" viewBox="0 0 487 487" fill="none" xmlns="http://www.w3.org/2000/svg">
<g clip-path="url(#clip0_4_71)">
<path d="M169.533 58.0697C152.814 69.4251 128.869 107.414 125.773 127.648C124.121 138.384 125.36 137.351 129.488 124.551C137.332 101.014 160.038 69.2187 176.139 59.7214C179.442 57.6568 182.125 55.3857 182.125 54.5598C182.125 51.4629 176.965 52.9081 169.533 58.0697Z" fill="white"/>
<path d="M320.426 54.5599C320.426 55.3857 325.173 59.7214 330.953 64.2636C342.925 73.7609 357.375 92.7554 364.599 108.86C382.351 147.881 378.017 196.606 354.072 233.356C348.705 241.408 344.577 248.635 344.783 249.667C344.99 250.493 342.719 254.003 339.623 257.513C336.32 261.022 333.843 264.945 333.843 266.184C333.843 267.423 332.604 268.662 330.953 269.281C329.095 269.9 328.682 269.281 329.715 267.629C330.953 265.771 330.54 265.358 328.889 266.39C327.444 267.423 326.825 268.662 327.444 269.281C328.889 270.726 324.761 275.888 322.077 275.888C321.045 275.888 320.839 274.855 321.664 273.41C322.49 271.965 322.284 271.758 320.632 272.584C319.394 273.41 318.774 274.855 319.394 275.681C322.077 280.223 282.445 295.708 273.362 293.644C269.234 292.611 268.615 292.818 270.885 294.469C273.569 296.121 273.362 296.534 269.853 296.74C267.582 296.74 266.757 297.36 268.202 297.773C275.633 300.87 328.682 279.811 328.682 273.823C328.682 272.584 330.127 271.758 331.779 271.758C333.43 271.758 335.701 269.9 336.939 267.629C338.178 265.358 338.591 263.5 337.765 263.5C336.939 263.5 337.971 261.642 340.036 259.371C343.132 256.067 344.37 255.654 347.054 257.926C349.944 259.99 349.944 259.99 347.673 256.893C345.815 254.622 345.609 253.177 347.26 252.145C348.292 251.525 349.324 252.145 349.324 253.383C349.324 254.829 352.834 252.351 357.168 247.809C365.012 239.137 379.049 213.33 377.81 209.613C377.397 208.374 373.475 214.362 369.141 222.827C365.012 231.292 358.613 241.408 355.311 245.125C349.531 251.525 349.737 251.319 356.343 241.202C360.265 235.215 366.457 223.033 370.173 213.743C374.92 202.387 377.397 198.258 378.223 200.735C380.7 207.342 382.558 197.638 381.526 185.044C380.906 178.024 381.113 175.96 381.939 179.883L383.59 186.077L385.035 180.915C387.099 173.069 386.686 152.01 384.416 152.01C383.384 152.01 382.971 149.326 383.59 146.023C385.241 137.558 379.462 116.705 370.586 99.5687C360.884 81.1935 333.843 52.9082 325.793 52.9082C322.903 52.9082 320.426 53.5275 320.426 54.5599ZM383.796 164.811C383.177 166.256 382.764 165.224 382.764 162.333C382.764 159.443 383.177 158.411 383.796 159.649C384.209 161.095 384.209 163.572 383.796 164.811ZM379.668 193.716C379.049 195.367 378.429 194.748 378.429 192.477C378.223 190.206 378.842 188.967 379.462 189.793C380.081 190.412 380.287 192.27 379.668 193.716Z" fill="white"/>
<path d="M291.321 91.3102C246.941 149.326 232.079 169.147 221.758 184.631C211.024 200.735 210.198 201.561 206.07 198.877C203.593 197.225 199.052 192.064 195.749 187.522C189.763 179.057 189.763 178.85 193.478 174.721C195.749 172.244 209.372 161.92 223.822 151.597C246.941 135.08 253.546 129.299 249.005 129.299C247.354 129.299 193.478 167.701 189.35 171.831C183.983 177.199 185.841 183.599 196.368 195.367C206.07 206.103 206.483 206.929 203.593 211.471C201.941 214.155 197.813 220.556 194.717 226.13C191.414 231.498 186.254 239.757 183.157 244.505C180.061 249.048 177.997 254.003 178.41 255.241C178.822 256.48 185.634 247.396 193.478 234.802C201.322 222.207 208.753 211.884 209.785 211.884C211.85 211.884 248.592 246.57 250.037 249.873C250.45 250.699 249.418 252.351 247.973 253.383C246.528 254.209 245.909 255.861 246.941 256.687C247.766 257.513 266.138 240.376 287.605 218.698C319.394 186.077 326.618 177.818 326.618 173.276C326.618 168.527 322.49 163.779 304.944 148.294C275.427 122.073 271.092 122.073 298.339 148.294C314.646 163.985 320.426 170.798 320.426 174.515C320.426 178.231 311.756 188.141 288.018 212.297C270.266 230.26 254.785 244.918 253.753 244.918C252.72 244.918 243.019 236.04 232.079 225.304L212.262 205.69L222.583 190.825C236.413 170.385 265.931 130.951 287.399 103.491C305.977 79.9547 311.55 71.4898 308.454 71.4898C307.421 71.4898 299.578 80.3677 291.321 91.3102Z" fill="white"/>
<path d="M122.677 144.784C122.677 148.087 123.089 149.326 123.709 147.262C124.121 145.403 124.121 142.513 123.709 141.068C123.089 139.829 122.677 141.274 122.677 144.784Z" fill="white"/>
<path d="M207.928 288.276C207.308 289.514 208.134 289.721 209.785 289.101C213.501 287.656 214.12 286.211 211.23 286.211C209.992 286.211 208.547 287.037 207.928 288.276Z" fill="white"/>
<path d="M63.4342 352.692C62.815 354.137 62.6085 373.958 62.815 396.668C63.4342 431.767 63.8471 437.961 66.5305 437.961C68.8011 437.961 69.6268 435.277 70.0396 427.638C70.6589 404.514 70.246 405.959 76.4386 405.959C79.5349 405.959 85.3146 404.927 89.443 403.895C109.466 398.32 115.865 370.654 100.383 356.202C96.0484 352.072 92.5393 351.247 79.7413 350.627C68.1818 350.008 64.2599 350.421 63.4342 352.692ZM96.6677 361.363C101.622 365.493 102.447 367.764 102.447 376.848C102.447 391.094 96.6677 397.288 81.3927 399.146L70.6589 400.385L70.4525 384.487C70.246 375.816 70.246 366.525 70.246 363.634C70.246 360.744 70.246 358.06 70.4525 357.441C70.6589 356.821 75.2001 356.408 80.7734 356.408C88.6173 356.408 92.3329 357.647 96.6677 361.363Z" fill="white"/>
<path d="M130.52 394.81C130.52 429.496 131.14 439.2 133.204 438.58C134.855 437.961 135.681 432.18 135.887 420.205L136.094 402.862L145.589 402.243L155.084 401.623L164.579 420.205C169.946 431.354 175.107 438.993 176.965 438.993C181.299 438.993 181.093 437.961 170.772 420.205C160.657 402.656 160.038 400.798 164.373 398.32C169.327 395.43 175.932 382.422 175.932 375.403C175.932 358.679 164.786 350.214 142.905 350.214H130.52V394.81ZM155.703 356.408C165.405 359.299 169.74 365.286 169.74 376.642C169.74 383.248 168.501 386.758 164.579 390.681C160.038 395.223 157.974 395.843 147.447 395.223L135.681 394.604L135.474 377.054C135.268 367.351 135.681 358.266 136.094 356.821C137.332 353.724 145.382 353.518 155.703 356.408Z" fill="white"/>
<path d="M224.854 351.66C223.409 354.137 200.703 434.451 200.703 436.929C200.703 437.961 201.529 438.993 202.561 438.993C203.386 438.993 205.451 434.658 206.895 429.083C208.34 423.715 209.785 417.728 210.405 415.663C211.23 412.566 213.294 412.153 226.092 412.566L240.955 413.185L244.257 425.367C245.909 432.18 248.592 438.167 249.831 438.58C253.34 439.613 253.133 438.787 245.289 411.121C241.574 397.494 236.207 378.706 233.73 369.209C229.189 352.898 226.918 348.356 224.854 351.66ZM233.73 382.216C236.413 393.571 238.89 404.101 239.303 405.34C240.129 407.404 236.826 408.024 226.712 408.024C219.281 408.024 213.088 407.611 213.088 406.992C213.088 406.372 215.978 394.604 219.281 380.771C222.79 367.144 225.473 355.169 225.68 354.55C225.886 351.453 229.602 363.428 233.73 382.216Z" fill="white"/>
<path d="M260.564 351.66C260.564 356.615 284.509 436.516 286.367 437.135C288.637 438.167 313.407 352.898 311.343 350.834C308.866 348.356 307.008 353.311 298.958 383.868C289.05 421.65 286.16 430.528 284.715 426.605C284.302 424.954 280.793 410.914 276.871 395.636C267.789 357.853 265.725 351.66 263.041 350.627C261.596 350.214 260.564 350.627 260.564 351.66Z" fill="white"/>
<path d="M332.192 351.453C329.302 354.344 333.43 356.408 342.306 356.408H351.389V397.907C351.389 430.115 352.008 439.2 354.072 438.58C355.93 437.754 356.756 427.225 357.168 397.081L357.581 356.408H366.87C373.682 356.408 376.159 355.582 376.159 353.311C376.159 350.834 372.443 350.214 354.898 350.214C343.132 350.214 332.811 350.834 332.192 351.453Z" fill="white"/>
<path d="M396.801 353.311C396.801 355.789 400.104 356.408 416.411 356.408C427.144 356.408 436.02 356.821 436.02 357.234C436.02 357.853 426.732 374.577 415.172 394.397C388.957 440.026 388.957 439.406 418.888 438.58C434.163 438.167 441.181 437.135 441.8 435.277C442.419 433.419 437.465 432.799 421.778 432.799C410.218 432.799 400.929 432.386 400.929 431.767C400.929 431.148 409.805 415.25 420.539 396.462C431.273 377.674 440.355 359.918 440.562 356.821L441.181 351.247L419.094 350.627C400.104 350.214 396.801 350.627 396.801 353.311Z" fill="white"/>
</g>
<defs>
<clipPath id="clip0_4_71">
<rect width="487" height="487" fill="white"/>
</clipPath>
</defs>
</svg>
